<svg xmlns="http://www.w3.org/2000/svg" width="32" height="32" viewBox="2 8 56 59" role="img" aria-label="Vitali Set">
  <!-- Chicken from OpenMoji (openmoji.org), modified (cropped viewBox). Licensed CC BY-SA 4.0; this derivative remains CC BY-SA 4.0. -->
  <g>
    <path fill="#EA5A47" d="M44.62,26.25c0,0,4.375-7.25,2.375-8.25s-5,1-5,1s2-7-2-7s-5,4-5,4s-1.457-8.296-7-6c-3.464,1.435-5,5,0,15"/>
    <path fill="#FFFFFF" d="M21,35c0,0,4-11,15-11s15,11,15,11c15,28-15,29-15,29S6,63,21,35z"/>
    <path fill="#F1B31C" d="M36,43c0,0,18-1,0,18C36,61,18,43,36,43z"/>
  </g>
  <g>
    <path fill="none" stroke="#000000" stroke-linecap="round" stroke-linejoin="round" stroke-miterlimit="10" stroke-width="2" d="M44.46,26.25c0,0,4.375-7.25,2.375-8.25s-5,1-5,1s2-7-2-7s-5,4-5,4s-1.457-8.296-7-6c-3.464,1.435-5,5,0,15"/>
    <circle cx="27" cy="39" r="2"/>
    <circle cx="45" cy="39" r="2"/>
    <path fill="none" stroke="#000000" stroke-linecap="round" stroke-linejoin="round" stroke-miterlimit="10" stroke-width="2" d="M36.02,43c0,0,18-1,0,18C36.02,61,18.02,43,36.02,43z"/>
    <path fill="none" stroke="#000000" stroke-linecap="round" stroke-linejoin="round" stroke-miterlimit="10" stroke-width="2" d="M21,35c0,0,4-11,15-11s15,11,15,11c15,28-15,29-15,29S6,63,21,35z"/>
  </g>
</svg>
