<?xml version="1.0" standalone="no"?>
<!DOCTYPE svg PUBLIC "-//W3C//DTD SVG 20010904//EN"
 "http://www.w3.org/TR/2001/REC-SVG-20010904/DTD/svg10.dtd">
<svg version="1.0" xmlns="http://www.w3.org/2000/svg"
 width="512.000000pt" height="512.000000pt" viewBox="0 0 512.000000 512.000000"
 preserveAspectRatio="xMidYMid meet">

<g transform="translate(0.000000,512.000000) scale(0.100000,-0.100000)"
fill="#000000" stroke="none">
<path d="M580 5070 c-74 -12 -176 -50 -247 -91 -91 -53 -201 -170 -250 -264
-64 -125 -78 -180 -77 -325 0 -110 4 -135 28 -205 40 -117 80 -180 170 -271
91 -90 153 -130 271 -170 71 -25 94 -28 210 -28 117 0 139 3 214 29 192 65
346 211 421 397 73 185 65 368 -27 557 -37 79 -59 108 -127 176 -87 87 -197
151 -306 180 -70 19 -209 26 -280 15z"/>
<path d="M3658 3620 c-267 -24 -502 -128 -701 -310 l-57 -52 0 71 c0 102 -29
155 -108 195 -29 15 -82 16 -500 14 l-468 -3 -41 -27 c-79 -52 -73 100 -73
-1725 0 -1580 1 -1629 19 -1659 10 -17 36 -42 57 -55 l39 -24 498 -3 c333 -2
510 1 537 8 54 14 107 63 120 108 6 24 10 376 10 998 0 1054 -3 1000 60 1124
55 108 150 190 268 231 74 27 215 28 287 4 114 -39 225 -127 265 -213 56 -116
53 -68 59 -1148 l6 -1001 29 -37 c16 -21 48 -47 72 -57 41 -19 69 -19 502 -17
l458 3 36 24 c19 13 46 40 59 59 l24 36 3 1150 c3 1194 1 1259 -39 1416 -78
311 -273 570 -553 738 -217 130 -517 183 -868 152z"/>
<path d="M235 3516 c-60 -28 -97 -66 -124 -126 -20 -45 -21 -57 -21 -1600 0
-1758 -8 -1594 82 -1676 75 -69 76 -69 518 -69 436 0 428 -1 504 65 20 18 47
52 59 74 l22 41 0 1565 0 1565 -22 40 c-28 53 -78 99 -133 124 -43 20 -64 21
-440 21 -395 0 -395 0 -445 -24z"/>
</g>
</svg>
