<?xml version="1.0" encoding="utf-8"?>
<!-- Generator: Adobe Illustrator 16.0.0, SVG Export Plug-In . SVG Version: 6.00 Build 0)  -->
<!DOCTYPE svg PUBLIC "-//W3C//DTD SVG 1.1//EN" "http://www.w3.org/Graphics/SVG/1.1/DTD/svg11.dtd">
<svg version="1.1" id="Layer_1" xmlns="http://www.w3.org/2000/svg" xmlns:xlink="http://www.w3.org/1999/xlink" x="0px" y="0px"
	 width="24px" height="24px" viewBox="0 0 24 24" enable-background="new 0 0 24 24" xml:space="preserve">
<g>
	<path d="M10.472,22.371v-1.967l-0.144-0.128c-0.168,0.11-0.366,0.179-0.582,0.19c-0.021,0-0.044,0-0.066,0
		c-0.227,0-0.439-0.063-0.622-0.172v1.981C8.344,22.524,7.827,23.198,7.827,24h3.651C11.478,23.286,11.068,22.667,10.472,22.371
		L10.472,22.371z M10.472,22.371"/>
	<path d="M14.938,22.275v-1.985c-0.179,0.113-0.392,0.176-0.619,0.176c-0.022,0-0.048,0-0.066,0
		c-0.216-0.011-0.414-0.081-0.582-0.19l-0.143,0.128v1.963c-0.597,0.3-1.007,0.919-1.007,1.629h3.647
		C16.169,23.198,15.656,22.521,14.938,22.275L14.938,22.275z M14.938,22.275"/>
	<path d="M9.058,16.792v1.438c0.164-0.099,0.355-0.158,0.556-0.168c0.327-0.019,0.626,0.095,0.854,0.293l-0.063-1.563L9.058,16.792z
		"/>
	<path d="M13.705,16.79l-0.063,1.563c0.228-0.198,0.527-0.312,0.854-0.293c0.2,0.011,0.392,0.069,0.556,0.168v-1.438L13.705,16.79z"
		/>
	<g>
		<path d="M10.874,4.716c0,0.238-0.194,0.432-0.433,0.432c-0.242,0-0.432-0.194-0.432-0.432s0.19-0.432,0.432-0.432
			C10.68,4.284,10.874,4.478,10.874,4.716L10.874,4.716z M10.874,4.716"/>
		<path d="M13.99,4.716c0,0.238-0.194,0.432-0.432,0.432c-0.238,0-0.432-0.194-0.432-0.432s0.194-0.432,0.432-0.432
			C13.796,4.284,13.99,4.478,13.99,4.716L13.99,4.716z M13.99,4.716"/>
		<path d="M13.836,9.052V8.101h1.212c0,0,1.26-5.409,0-5.409h-1.278c-0.176-0.238-0.699-0.425-1.362-0.486l-0.362-0.019
			c-0.018,0-0.033,0-0.048,0c-0.014,0-0.029,0-0.043,0c-0.121-0.388-0.568-1.548-1.567-1.834C10.295,0.146,10.09,0,9.848,0
			C9.519,0,9.256,0.267,9.256,0.594c0,0.325,0.263,0.593,0.592,0.593c0.275,0,0.506-0.191,0.572-0.447
			c0.677,0.282,1.032,1.095,1.168,1.468c-0.663,0.059-1.19,0.25-1.366,0.488H8.948c-1.26,0,0,5.405,0,5.405h1.211v0.955H7.666
			l0.092,1.414l0.388,5.892h0.912h1.41h3.058h1.413h0.912l0.384-5.892l0.095-1.414L13.836,9.052z M10.438,5.673
			c-0.527,0-0.952-0.429-0.952-0.957c0-0.527,0.425-0.955,0.952-0.955c0.531,0,0.959,0.428,0.959,0.955
			C11.397,5.244,10.969,5.673,10.438,5.673z M13.123,7.152h-2.249V6.445h1.124h1.125V7.152z M12.603,4.716
			c0-0.527,0.428-0.955,0.956-0.955s0.956,0.428,0.956,0.955c0,0.528-0.428,0.957-0.956,0.957S12.603,5.244,12.603,4.716z"/>
	</g>
	<g>
		<path d="M16.544,10.817c0.876-0.228,2.04-1.191,2.553-2.328c-0.16,0.054-0.33,0.076-0.501,0.059l0,0
			c-0.358-0.032-0.66-0.217-0.856-0.487c-0.282,0.533-0.714,0.944-1.05,1.161L16.544,10.817z"/>
		<path d="M20.855,2.811c0.042-0.279-0.152-0.542-0.435-0.584c-0.279-0.042-0.542,0.153-0.583,0.431L19.797,2.93l-0.829-0.128
			l0.04-0.268c0.042-0.283-0.155-0.545-0.434-0.587c-0.282-0.042-0.545,0.151-0.587,0.434l-0.115,0.771
			c-0.006,0.04-0.005,0.081-0.003,0.122c0,0.004-0.001,0.007-0.002,0.011c-0.052,0.351,0.188,0.676,0.539,0.729l0.087,0.013
			l-0.324,2.166l0.049,0.059c0.184-0.083,0.39-0.124,0.605-0.102c0.021,0.003,0.043,0.007,0.065,0.01
			c0.261,0.039,0.488,0.158,0.665,0.333l0.338-2.256l0.101,0.015c0.347,0.056,0.673-0.188,0.725-0.536
			c0.003-0.022,0.003-0.044,0.006-0.066c0.003-0.021,0.014-0.042,0.013-0.064L20.855,2.811z M20.735,3.585"/>
		<circle cx="18.701" cy="7.401" r="0.776"/>
	</g>
	<g>
		<path d="M7.32,9.308C6.992,9.079,6.576,8.652,6.314,8.109C6.107,8.372,5.799,8.545,5.44,8.564l0,0
			C5.269,8.576,5.099,8.547,4.941,8.487c0.471,1.155,1.598,2.161,2.465,2.421L7.32,9.308z"/>
		<path d="M3.487,3.524C3.486,3.547,3.496,3.568,3.498,3.589C3.5,3.611,3.5,3.634,3.502,3.655c0.039,0.35,0.355,0.605,0.704,0.563
			l0.102-0.011l0.253,2.267c0.184-0.168,0.415-0.278,0.677-0.308C5.26,6.164,5.282,6.161,5.304,6.159
			c0.216-0.013,0.42,0.034,0.601,0.125l0.051-0.058L5.712,4.049L5.8,4.04C6.153,4,6.405,3.685,6.366,3.332
			c0-0.004-0.001-0.007-0.001-0.011C6.367,3.28,6.37,3.239,6.366,3.199L6.279,2.424C6.247,2.14,5.992,1.937,5.708,1.968
			C5.428,2,5.221,2.254,5.252,2.539l0.03,0.269L4.45,2.905l-0.03-0.273c-0.031-0.28-0.287-0.483-0.566-0.452
			C3.569,2.211,3.365,2.466,3.396,2.746L3.487,3.524z M3.487,3.524"/>
		<circle cx="5.378" cy="7.414" r="0.776"/>
	</g>
	<circle cx="9.652" cy="19.26" r="0.776"/>
	<circle cx="14.346" cy="19.26" r="0.776"/>
</g>
</svg>
